<?xml version="1.0" encoding="UTF-8"?>
<svg id="Layer_2" data-name="Layer 2" xmlns="http://www.w3.org/2000/svg" viewBox="0 0 78.53 60.69">
  <defs>
    <style>
      .cls-1 {
        fill: none;
        stroke: #000;
        stroke-linecap: round;
        stroke-linejoin: round;
        stroke-width: 2px;
      }
    </style>
  </defs>
  <g id="Layer_1-2" data-name="Layer 1">
    <g>
      <path class="cls-1" d="m59.5,7.58c0-2.77.72-6.58-2.53-6.58-5.34,0-29.17.03-35.26.03-4.33,0-4.08,2.52-4.08,5.69"/>
      <path class="cls-1" d="m21.94,28.5c8.13,0,16.27,0,24.4,0,4.63,0,4.19,3.06,4.19,5.26l-.04,5.05c0,2.18-1.67,3.55-4.14,3.55-2.63,0-5.26,0-7.9,0"/>
      <path class="cls-1" d="m11.65,17.38h-3.95c-7.21,0-6.62,4.56-6.62,6.93,0,9.24-.08,8.34-.08,13.5,0,1.33-.11,5.77,3,5.77,1.22,0,3.8.02,3.8.02"/>
      <path class="cls-1" d="m50.53,36.14c4.23-.03,17.41-.11,21.64-.11,4.53,0,5.37-1.99,5.37-4.56,0-6.78-.22-6.75-.22-11.09,0-2.59-1.81-3.72-3-3.72-1.42,0-9.07,0-9.07,0"/>
      <path class="cls-1" d="m38.21,37.81c-5.34,0-24.24.02-29.58,0-2.18,0-1.98,3.35.24,3.35,3.59,0,11.76,0,15.35,0"/>
      <path class="cls-1" d="m23.32,7.43c-3.71,0-7.79.07-12.01.07-3.19,0-4.33,1.33-4.33,3.47,0,2.31-.04,3.94-.04,6.07"/>
      <path class="cls-1" d="m70.96,16.67c0-7.04.87-8.62-5.65-8.62-1.27,0-14.92.01-15.87.01"/>
      <path class="cls-1" d="m39.71,48.82c-3.53-.33-5.93,1.94-6.39,5.73-.12,1.65-.07,2.84-.07,4.67"/>
      <path class="cls-1" d="m22.55,44.34c-4.73-.02-6.77,0-9.26,0-1.8,0-2.07,3.12.08,3.12,3.59-.02,8.86,0,12.45,0"/>
      <path class="cls-1" d="m35.35,37.81c-5.44.5-7.6,5.25-8.04,7.3-.28,1.31-.46,2.58-.39,3.95.18,3.54-.1,7.09.16,10.64"/>
      <path class="cls-1" d="m49.71,22.04c.37,0,10.78,0,11.2,0,1.6,0,3.17.55,3.17,2.76v3.41c0,1.28-.4,2.31-3.11,2.31"/>
      <path class="cls-1" d="m57.02,22.04c1.93,0,2.94-.88,2.94-2.99,0-2.65,0-.79,0-2.76,0-1.48-1.41-2.14-2.58-2.14-.81,0-4.04-.02-5.28-.02"/>
      <path class="cls-1" d="m10.13,41.17c-2.01,0-2.25,3.16-.12,3.16h9.07"/>
      <path class="cls-1" d="m50.53,36.28c2.4,0,2.57.5,2.58,1.88,0,1.13-.75,1.46-2.58,1.46"/>
    </g>
  </g>
</svg>